<svg width="426" height="95" viewBox="0 0 426 95" fill="none" xmlns="http://www.w3.org/2000/svg">
<g clip-path="url(#clip0_7_143)">
<path d="M384.625 63.1666L398.125 47.5M398.125 47.5L384.625 31.8333M398.125 47.5L371.125 47.5M384.625 8.3333C403.265 8.3333 418.375 25.8688 418.375 47.5C418.375 69.1311 403.265 86.6666 384.625 86.6666C365.985 86.6666 350.875 69.1311 350.875 47.5C350.875 25.8688 365.985 8.3333 384.625 8.3333Z" stroke="#1E1E1E" stroke-width="12" stroke-linecap="round" stroke-linejoin="round"/>
</g>
<path d="M308.4 1.25C313.733 1.16666 318.108 2.125 321.525 4.125C325.025 6.125 327.858 8.5 330.025 11.25C332.192 14 333.858 16.7917 335.025 19.625C336.192 22.375 337.108 24.5417 337.775 26.125C337.942 26.5417 338.275 27.0833 338.775 27.75C339.192 28.3333 339.775 29.0417 340.525 29.875C341.358 30.625 342.4 31.5 343.65 32.5C341.067 32.5833 338.775 32.6667 336.775 32.75C334.775 32.75 333.067 32.7917 331.65 32.875C330.067 32.9583 328.65 33.0417 327.4 33.125C326.15 33.2083 324.608 33.3333 322.775 33.5C321.108 33.6667 319.067 33.8333 316.65 34C314.233 34.1667 311.275 34.4167 307.775 34.75C309.858 32.25 311.483 30.0417 312.65 28.125C313.9 26.125 314.817 24.375 315.4 22.875C316.067 21.2917 316.442 19.9167 316.525 18.75C316.692 17.5833 316.65 16.5833 316.4 15.75C315.9 13.8333 314.608 12.4583 312.525 11.625C306.525 9.95833 301.275 11.2917 296.775 15.625C292.358 19.875 289.192 26.875 287.275 36.625C286.358 41.4583 285.483 46.5 284.65 51.75C283.9 56.9167 283.608 61.6667 283.775 66C283.942 70.25 284.775 73.7083 286.275 76.375C287.775 79.0417 290.358 80.2917 294.025 80.125C297.608 79.9583 300.65 79.375 303.15 78.375C305.65 77.2917 307.65 76.0417 309.15 74.625C310.65 73.125 311.692 71.5417 312.275 69.875C312.942 68.125 313.192 66.5 313.025 65C312.692 63.8333 311.817 62.5833 310.4 61.25C309.15 60.0833 307.275 58.7917 304.775 57.375C302.275 55.875 298.692 54.3333 294.025 52.75C298.442 52.5 302.067 52.3333 304.9 52.25C307.817 52.0833 310.108 51.9167 311.775 51.75C313.775 51.5833 315.317 51.4583 316.4 51.375C317.4 51.2917 318.858 51.2083 320.775 51.125C322.442 51.0417 324.567 51 327.15 51C329.817 51 333.15 50.9583 337.15 50.875C335.65 52.375 334.483 53.75 333.65 55C333.233 55.6667 332.858 56.25 332.525 56.75C332.192 57.5833 332.067 59.2917 332.15 61.875C332.15 64.0417 332.317 67.25 332.65 71.5C332.983 75.6667 333.608 81.375 334.525 88.625L317.9 90.875L318.65 74C316.733 78.5833 314.317 82 311.4 84.25C308.567 86.5 305.858 88.0833 303.275 89C300.192 90.0833 296.983 90.5833 293.65 90.5C289.317 90.0833 284.983 89.0833 280.65 87.5C276.317 85.9167 272.483 83.5 269.15 80.25C265.817 76.9167 263.233 72.625 261.4 67.375C259.65 62.125 259.108 55.625 259.775 47.875C260.525 40.125 262.358 33.375 265.275 27.625C268.275 21.7917 271.983 16.9583 276.4 13.125C280.817 9.29166 285.775 6.41666 291.275 4.5C296.858 2.5 302.567 1.41666 308.4 1.25Z" fill="black"/>
<path d="M198.8 31.625C200.383 31.7083 201.8 31.75 203.05 31.75C204.383 31.6667 205.508 31.5833 206.425 31.5C207.508 31.4167 208.467 31.3333 209.3 31.25C210.55 31.0833 211.842 30.875 213.175 30.625C214.342 30.4583 215.55 30.25 216.8 30C218.133 29.6667 219.425 29.2917 220.675 28.875C220.175 30.125 219.758 31.2083 219.425 32.125C219.092 33.0417 218.842 33.8333 218.675 34.5C218.425 35.25 218.3 35.875 218.3 36.375C218.217 36.9583 218.175 37.6667 218.175 38.5C218.092 39.9167 218.092 42.2083 218.175 45.375C222.508 41.625 226.133 38.7083 229.05 36.625C232.05 34.5417 234.425 32.9167 236.175 31.75C238.258 30.4167 239.883 29.5417 241.05 29.125C244.133 28.625 246.842 29.3333 249.175 31.25C250.175 32.0833 251.133 33.2083 252.05 34.625C252.967 35.9583 253.758 37.75 254.425 40C255.092 42.25 255.592 44.9583 255.925 48.125C256.258 51.2083 256.3 54.9167 256.05 59.25C254.3 59.4167 252.717 59.5833 251.3 59.75C249.967 59.9167 248.842 60.0417 247.925 60.125C246.842 60.2917 245.842 60.375 244.925 60.375L241.55 60.75C240.383 60.9167 238.925 61.0833 237.175 61.25C235.508 61.3333 233.467 61.5 231.05 61.75C234.55 58.9167 236.8 56.4583 237.8 54.375C238.883 52.2083 239.342 50.4167 239.175 49C239.008 47.4167 238.258 46.0417 236.925 44.875C235.342 43.9583 233.633 43.625 231.8 43.875C230.217 44.0417 228.383 44.75 226.3 46C224.217 47.25 222.008 49.5833 219.675 53C219.842 58.3333 220.008 62.75 220.175 66.25C220.425 69.75 220.633 72.5833 220.8 74.75C221.05 77.25 221.258 79.2083 221.425 80.625C221.675 81.875 222.175 83.2083 222.925 84.625C223.508 85.7917 224.342 87.0833 225.425 88.5C226.508 89.9167 227.925 91.3333 229.675 92.75C226.008 92.5833 223.008 92.5833 220.675 92.75C219.258 92.8333 218.008 92.9167 216.925 93C215.758 93.1667 214.508 93.3333 213.175 93.5C212.008 93.6667 210.633 93.8333 209.05 94C207.55 94.25 205.883 94.5 204.05 94.75C204.717 93.8333 205.258 92.75 205.675 91.5C206.092 90.3333 206.425 89.2083 206.675 88.125C207.008 86.875 207.258 85.5833 207.425 84.25C207.508 83.0833 207.55 81.3333 207.55 79C207.633 76.6667 207.592 74.0417 207.425 71.125C207.342 68.125 207.217 65.0417 207.05 61.875C206.883 58.625 206.675 55.5833 206.425 52.75C206.175 49.9167 205.883 47.4583 205.55 45.375C205.3 43.2083 205.008 41.7083 204.675 40.875C204.258 39.875 203.758 38.875 203.175 37.875C202.675 36.9583 202.05 36 201.3 35C200.55 33.9167 199.717 32.7917 198.8 31.625Z" fill="black"/>
<path d="M140.575 40.8751C140.992 40.3751 141.242 39.4584 141.325 38.1251C141.492 36.7084 141.825 35.1251 142.325 33.3751C142.908 31.6251 143.867 29.7917 145.2 27.8751C146.533 25.9584 148.7 24.1667 151.7 22.5001C154.617 20.8334 157.45 19.8334 160.2 19.5001C162.95 19.1667 165.575 19.2917 168.075 19.8751C170.575 20.4584 172.908 21.3751 175.075 22.6251C177.325 23.8751 179.367 25.2501 181.2 26.7501C182.45 27.7501 183.45 29.2084 184.2 31.1251C184.95 32.9584 185.533 35.0417 185.95 37.3751C186.367 39.7084 186.658 42.1667 186.825 44.7501C187.075 47.2501 187.242 49.7084 187.325 52.1251C187.408 54.4584 187.45 56.6251 187.45 58.6251C187.533 60.5417 187.7 62.1251 187.95 63.3751C188.283 65.2084 188.867 66.7917 189.7 68.1251C190.533 69.3751 191.45 70.4584 192.45 71.3751C193.45 72.2084 194.45 72.8751 195.45 73.3751C196.45 73.8751 197.325 74.2501 198.075 74.5001C198.575 74.7501 199.033 74.9167 199.45 75.0001C200.283 75.3334 200.867 75.3334 201.2 75.0001C200.7 76.1667 200.242 77.1667 199.825 78.0001C199.408 78.8334 199.075 79.5417 198.825 80.1251C198.492 80.7917 198.2 81.3334 197.95 81.7501C197.7 82.2501 197.408 82.7084 197.075 83.1251C196.825 83.5417 196.492 84.0001 196.075 84.5001C195.658 85.0001 195.242 85.5417 194.825 86.1251C193.742 85.7084 192.7 85.2084 191.7 84.6251C190.783 84.0417 189.95 83.5001 189.2 83.0001C188.283 82.4167 187.45 81.8334 186.7 81.2501C185.95 80.6667 185.242 80.0001 184.575 79.2501C183.992 78.5834 183.367 77.8751 182.7 77.1251C182.117 76.3751 181.617 75.5417 181.2 74.6251C180.7 75.7084 179.492 77.2501 177.575 79.2501C175.742 81.2501 173.325 83.0834 170.325 84.7501C167.325 86.3334 163.825 87.4584 159.825 88.1251C155.908 88.7917 151.575 88.3334 146.825 86.7501C144.742 86.0834 142.783 85.1251 140.95 83.8751C139.117 82.5417 137.533 80.9584 136.2 79.1251C134.95 77.2917 134.033 75.2084 133.45 72.8751C132.95 70.4584 132.992 67.7917 133.575 64.8751C134.158 61.9584 135.2 59.5001 136.7 57.5001C138.2 55.5001 139.992 53.8751 142.075 52.6251C144.158 51.3751 146.492 50.4167 149.075 49.7501C151.658 49.0834 154.325 48.6251 157.075 48.3751C159.242 48.2917 161.408 48.4167 163.575 48.7501C165.408 49.0834 167.325 49.7084 169.325 50.6251C171.325 51.4584 173.033 52.7501 174.45 54.5001C174.367 50.0834 174.2 46.5834 173.95 44.0001C173.783 41.3334 173.617 39.2917 173.45 37.8751C173.117 36.2084 172.825 35.0417 172.575 34.3751C172.158 33.7917 171.7 33.1251 171.2 32.3751C170.783 31.6251 170.242 30.9584 169.575 30.3751C168.908 29.7084 168.075 29.1667 167.075 28.7501C166.075 28.3334 164.908 28.1667 163.575 28.2501C162.158 28.3334 161.033 28.7084 160.2 29.3751C159.367 30.0417 158.7 30.8334 158.2 31.7501C157.783 32.5834 157.533 33.5001 157.45 34.5001C157.367 35.5001 157.408 36.3751 157.575 37.1251C157.742 37.6251 157.992 38.1667 158.325 38.7501C158.658 39.2501 159.117 39.7917 159.7 40.3751C160.283 40.9584 161.075 41.4584 162.075 41.8751C160.158 42.1251 158.45 42.3334 156.95 42.5001C155.45 42.5834 154.158 42.7084 153.075 42.8751C151.825 43.0417 150.742 43.1667 149.825 43.2501C148.908 43.3334 147.825 43.5001 146.575 43.7501C145.492 43.9167 144.158 44.1251 142.575 44.3751C140.992 44.6251 139.158 44.9584 137.075 45.3751C137.575 44.7917 138.033 44.2501 138.45 43.7501C138.867 43.1667 139.242 42.6667 139.575 42.2501C139.908 41.7501 140.242 41.2917 140.575 40.8751ZM159.325 55.7501C157.825 55.8334 156.325 56.2084 154.825 56.8751C153.325 57.4584 151.992 58.3334 150.825 59.5001C149.658 60.5834 148.658 61.8751 147.825 63.3751C147.075 64.7917 146.7 66.3751 146.7 68.1251C146.7 69.8751 147.117 71.4167 147.95 72.7501C148.867 74.0001 150.033 75.0417 151.45 75.8751C152.95 76.7084 154.533 77.2084 156.2 77.3751C157.95 77.5417 159.658 77.3751 161.325 76.8751C162.908 76.2917 164.408 75.3751 165.825 74.1251C167.242 72.7917 168.45 71.3751 169.45 69.8751C170.45 68.2917 171.158 66.7501 171.575 65.2501C171.992 63.6667 172.033 62.3751 171.7 61.3751C171.033 59.2084 169.533 57.7084 167.2 56.8751C164.867 55.9584 162.242 55.5834 159.325 55.7501Z" fill="black"/>
<path d="M85.975 12.75C88.475 13 90.5583 13.2083 92.225 13.375C93.975 13.5417 95.3916 13.6667 96.475 13.75C97.725 13.8333 98.725 13.875 99.475 13.875C100.225 13.9583 101.225 13.9583 102.475 13.875C103.558 13.7917 104.975 13.7083 106.725 13.625C108.475 13.4583 110.683 13.2083 113.35 12.875C112.767 13.7083 112.308 14.4583 111.975 15.125C111.642 15.7083 111.35 16.25 111.1 16.75L110.35 18.25C110.183 18.75 110.017 19.25 109.85 19.75C109.683 20.1667 109.517 20.6667 109.35 21.25C109.267 21.8333 109.183 22.4583 109.1 23.125H128.35L126.6 33.25L108.975 32.25C108.558 36.5 108.267 39.7917 108.1 42.125C107.933 44.4583 107.767 46.1667 107.6 47.25L107.35 49.5C107.1 52.6667 106.85 56.125 106.6 59.875C106.35 63.5417 106.267 66.9583 106.35 70.125C106.433 73.2917 106.725 75.9583 107.225 78.125C107.725 80.2083 108.6 81.25 109.85 81.25C111.1 81.25 112.267 80.9167 113.35 80.25C114.433 79.5833 115.35 78.7917 116.1 77.875C116.933 76.9583 117.558 76.0417 117.975 75.125C118.392 74.125 118.6 73.375 118.6 72.875C118.6 72.375 118.475 71.7917 118.225 71.125C117.808 69.875 117.058 68.2917 115.975 66.375C118.392 66.9583 120.517 67.5417 122.35 68.125C123.267 68.4583 124.1 68.7917 124.85 69.125C125.683 69.4583 126.642 69.8333 127.725 70.25C128.642 70.6667 129.808 71.1667 131.225 71.75C132.642 72.3333 134.308 73.0417 136.225 73.875C134.392 74.2083 133.058 74.75 132.225 75.5C131.725 75.8333 131.35 76.2083 131.1 76.625C130.517 77.5417 129.85 78.7917 129.1 80.375C128.35 81.875 127.225 83.375 125.725 84.875C124.225 86.375 122.183 87.7083 119.6 88.875C117.1 90.0417 113.725 90.7083 109.475 90.875C105.058 91.0417 101.683 90.2917 99.35 88.625C97.1 86.9583 95.4333 85.0417 94.35 82.875C93.35 80.625 92.7666 78.4167 92.6 76.25C92.4333 74.0833 92.3083 72.625 92.225 71.875C92.1416 71.125 92.1416 69.25 92.225 66.25C92.3083 63.25 92.4333 59.9583 92.6 56.375C92.7666 52.7083 92.9333 49.2083 93.1 45.875C93.2666 42.4583 93.35 39.9583 93.35 38.375C93.35 37.5417 93.3916 36.6667 93.475 35.75C93.475 35 93.475 34.2083 93.475 33.375C93.5583 32.4583 93.6 31.5833 93.6 30.75L75.475 30.625L74.725 23.5L92.975 24C92.8083 23.0833 92.6 22.25 92.35 21.5C92.1833 20.6667 92.0166 20 91.85 19.5C91.6 18.9167 91.35 18.4167 91.1 18C90.7666 17.5833 90.3916 17.125 89.975 16.625C89.5583 16.2083 89.0166 15.6667 88.35 15C87.6833 14.3333 86.8916 13.5833 85.975 12.75Z" fill="black"/>
<path d="M86.125 0C84.9583 2.66667 83.9167 5 83 7C82.0833 9 81.2917 10.7083 80.625 12.125C79.875 13.7083 79.25 15.125 78.75 16.375C78.3333 17.2917 77.7917 18.5417 77.125 20.125C76.4583 21.5417 75.625 23.4167 74.625 25.75C73.7083 28 72.5 30.9167 71 34.5C70.25 31.4167 69.3333 28.7083 68.25 26.375C67.1667 24.0417 66 22 64.75 20.25C63.5 18.5 62.1667 17.0833 60.75 16C59.4167 14.8333 58.0833 13.875 56.75 13.125C53.6667 11.4583 50.4167 10.5417 47 10.375C42.5 10.625 38.9583 11.375 36.375 12.625C33.875 13.7917 32.0417 15.1667 30.875 16.75C29.7083 18.25 29.0833 19.8333 29 21.5C28.9167 23.0833 29.125 24.4167 29.625 25.5C30.0417 26.5 31.5 27.6667 34 29C36.5833 30.3333 39.6667 31.875 43.25 33.625C46.9167 35.2917 50.8333 37.2083 55 39.375C59.1667 41.4583 63 43.7917 66.5 46.375C70.0833 48.875 73.0833 51.625 75.5 54.625C78 57.5417 79.375 60.6667 79.625 64C79.875 68.25 79.8333 72.0833 79.5 75.5C79.1667 78.9167 78 81.8333 76 84.25C74 86.6667 70.875 88.5833 66.625 90C62.4583 91.4167 56.6667 92.2917 49.25 92.625C41.5833 92.9583 35.2917 92.5417 30.375 91.375C25.4583 90.2083 21.4583 88.625 18.375 86.625C15.375 84.625 13.125 82.4167 11.625 80C10.2083 77.5833 9.16667 75.2917 8.5 73.125C7.83333 70.875 7.375 68.9583 7.125 67.375C6.875 65.7083 6.45833 64.7083 5.875 64.375C5.20833 63.9583 4.54167 63.5833 3.875 63.25C3.29167 62.9167 2.66667 62.625 2 62.375C1.33333 62.0417 0.666667 61.75 0 61.5L36.375 55.625C34.2917 57.2917 32.6667 58.8333 31.5 60.25C30.4167 61.6667 29.5833 62.9167 29 64C28.3333 65.25 27.875 66.4167 27.625 67.5C27.4583 68.6667 27.8333 70.125 28.75 71.875C29.6667 73.625 30.9167 75.3333 32.5 77C34.1667 78.5833 36.0833 79.9167 38.25 81C40.4167 82.0833 42.6667 82.5417 45 82.375C47.9167 82.125 50.2917 81.4167 52.125 80.25C53.9583 79 55.3333 77.4583 56.25 75.625C57.25 73.7917 57.8333 71.7917 58 69.625C58.1667 67.4583 57.9583 65.3333 57.375 63.25C56.875 61.0833 56.0417 59.0833 54.875 57.25C53.7083 55.3333 52.3333 53.75 50.75 52.5C49.3333 51.5 47.125 50.5417 44.125 49.625C41.2083 48.7083 37.9167 47.7083 34.25 46.625C30.6667 45.5417 26.9583 44.2917 23.125 42.875C19.375 41.4583 15.9583 39.7083 12.875 37.625C9.875 35.5417 7.45833 33.0833 5.625 30.25C3.875 27.4167 3.20833 24 3.625 20C3.95833 16.5833 5.04167 13.75 6.875 11.5C8.79167 9.16667 11.1667 7.33333 14 6C16.9167 4.58333 20.125 3.54167 23.625 2.875C27.2083 2.20833 30.8333 1.83333 34.5 1.75C38.25 1.58333 41.9167 1.625 45.5 1.875C49.1667 2.125 52.4583 2.41667 55.375 2.75C58.2917 3.08333 60.75 3.41667 62.75 3.75C64.8333 4 66.125 4.16667 66.625 4.25C68.7917 4.41667 70.9583 4.375 73.125 4.125C75.0417 3.95833 77.125 3.58333 79.375 3C81.7083 2.33333 83.9583 1.33333 86.125 0Z" fill="black"/>
<defs>
<clipPath id="clip0_7_143">
<rect width="94" height="81" fill="white" transform="matrix(0 -1 1 0 344.125 94.5)"/>
</clipPath>
</defs>
</svg>
