<svg width="255" height="57" viewBox="0 0 255 57" fill="none" xmlns="http://www.w3.org/2000/svg">
<g clip-path="url(#clip0_20_229)">
<path d="M230.707 37.8888L238.805 28.4915M238.805 28.4915L230.707 19.0943M238.805 28.4915L222.61 28.4915M230.707 4.99844C241.888 4.99844 250.951 15.5166 250.951 28.4915C250.951 41.4664 241.888 51.9846 230.707 51.9846C219.527 51.9846 210.463 41.4664 210.463 28.4915C210.463 15.5166 219.527 4.99844 230.707 4.99844Z" stroke="#FFBC00" stroke-width="9" stroke-linecap="round" stroke-linejoin="round"/>
</g>
<path d="M184.986 0.749825C188.185 0.69984 190.809 1.27467 192.858 2.47432C194.958 3.67396 196.657 5.09855 197.957 6.74806C199.257 8.39758 200.256 10.0721 200.956 11.7716C201.656 13.4211 202.206 14.7207 202.606 15.6704C202.705 15.9204 202.905 16.2453 203.205 16.6451C203.455 16.995 203.805 17.4199 204.255 17.9198C204.755 18.3696 205.38 18.8945 206.129 19.4943C204.58 19.5443 203.205 19.5943 202.006 19.6443C200.806 19.6443 199.781 19.6693 198.932 19.7192C197.982 19.7692 197.132 19.8192 196.382 19.8692C195.633 19.9192 194.708 19.9942 193.608 20.0941C192.608 20.1941 191.384 20.2941 189.934 20.394C188.485 20.494 186.71 20.644 184.611 20.8439C185.86 19.3444 186.835 18.0197 187.535 16.8701C188.285 15.6704 188.835 14.6207 189.184 13.721C189.584 12.7713 189.809 11.9465 189.859 11.2467C189.959 10.5469 189.934 9.94712 189.784 9.44727C189.484 8.29761 188.71 7.47285 187.46 6.97299C183.861 5.97329 180.712 6.77305 178.013 9.37229C175.364 11.9215 173.464 16.1203 172.314 21.9686C171.765 24.8677 171.24 27.8918 170.74 31.0409C170.29 34.14 170.115 36.9892 170.215 39.5884C170.315 42.1376 170.815 44.212 171.715 45.8116C172.614 47.4111 174.164 48.1609 176.363 48.0609C178.513 47.9609 180.337 47.611 181.837 47.0112C183.336 46.3614 184.536 45.6116 185.436 44.7619C186.335 43.8621 186.96 42.9124 187.31 41.9127C187.71 40.863 187.86 39.8883 187.76 38.9886C187.56 38.2888 187.035 37.539 186.185 36.7392C185.436 36.0394 184.311 35.2647 182.811 34.4149C181.312 33.5152 179.162 32.5905 176.363 31.6407C179.012 31.4908 181.187 31.3908 182.886 31.3408C184.636 31.2409 186.01 31.1409 187.01 31.0409C188.21 30.9409 189.134 30.866 189.784 30.816C190.384 30.766 191.259 30.716 192.409 30.666C193.408 30.616 194.683 30.591 196.232 30.591C197.832 30.591 199.831 30.5661 202.231 30.5161C201.331 31.4158 200.631 32.2406 200.131 32.9903C199.881 33.3902 199.656 33.7401 199.456 34.04C199.257 34.5399 199.182 35.5646 199.232 37.1141C199.232 38.4137 199.331 40.3382 199.531 42.8874C199.731 45.3867 200.106 48.8107 200.656 53.1594L190.684 54.509L191.134 44.387C189.984 47.1362 188.535 49.1856 186.785 50.5352C185.086 51.8848 183.461 52.8345 181.912 53.3843C180.062 54.0341 178.138 54.3341 176.138 54.2841C173.539 54.0341 170.94 53.4343 168.341 52.4846C165.741 51.5349 163.442 50.0853 161.443 48.1359C159.443 46.1365 157.894 43.5622 156.794 40.4132C155.744 37.2641 155.419 33.3652 155.819 28.7166C156.269 24.068 157.369 20.0192 159.118 16.5702C160.918 13.0712 163.142 10.1721 165.791 7.87273C168.441 5.57341 171.415 3.84891 174.714 2.69925C178.063 1.4996 181.487 0.849796 184.986 0.749825Z" fill="#FFBC00"/>
<path d="M119.245 18.9693C120.195 19.0193 121.044 19.0443 121.794 19.0443C122.594 18.9943 123.269 18.9443 123.819 18.8944C124.468 18.8444 125.043 18.7944 125.543 18.7444C126.293 18.6444 127.068 18.5195 127.867 18.3695C128.567 18.2695 129.292 18.1446 130.042 17.9946C130.841 17.7947 131.616 17.5698 132.366 17.3198C132.066 18.0696 131.816 18.7194 131.616 19.2693C131.416 19.8191 131.266 20.2939 131.166 20.6938C131.016 21.1437 130.941 21.5186 130.941 21.8185C130.891 22.1684 130.866 22.5933 130.866 23.0931C130.816 23.9429 130.816 25.3175 130.866 27.2169C133.466 24.9676 135.64 23.2181 137.39 21.9685C139.189 20.7188 140.614 19.7441 141.663 19.0443C142.913 18.2446 143.888 17.7197 144.587 17.4698C146.437 17.1699 148.061 17.5947 149.461 18.7444C150.061 19.2443 150.636 19.9191 151.185 20.7688C151.735 21.5686 152.21 22.6433 152.61 23.9929C153.01 25.3425 153.31 26.967 153.51 28.8664C153.71 30.7159 153.735 32.9402 153.585 35.5395C152.535 35.6394 151.585 35.7394 150.736 35.8394C149.936 35.9393 149.261 36.0143 148.711 36.0643C148.061 36.1643 147.462 36.2143 146.912 36.2143L144.887 36.4392C144.188 36.5392 143.313 36.6391 142.263 36.7391C141.263 36.7891 140.039 36.8891 138.589 37.039C140.689 35.3395 142.038 33.865 142.638 32.6153C143.288 31.3157 143.563 30.241 143.463 29.3913C143.363 28.4416 142.913 27.6168 142.113 26.917C141.163 26.3672 140.139 26.1672 139.039 26.3172C138.089 26.4171 136.99 26.842 135.74 27.5918C134.49 28.3416 133.166 29.7412 131.766 31.7906C131.866 34.9896 131.966 37.6388 132.066 39.7382C132.216 41.8376 132.341 43.5371 132.441 44.8367C132.591 46.3363 132.716 47.5109 132.816 48.3607C132.966 49.1105 133.266 49.9102 133.716 50.76C134.066 51.4598 134.565 52.2346 135.215 53.0843C135.865 53.9341 136.715 54.7838 137.764 55.6336C135.565 55.5336 133.766 55.5336 132.366 55.6336C131.516 55.6835 130.766 55.7335 130.117 55.7835C129.417 55.8835 128.667 55.9835 127.867 56.0834C127.168 56.1834 126.343 56.2834 125.393 56.3833C124.493 56.5333 123.494 56.6832 122.394 56.8332C122.794 56.2834 123.119 55.6336 123.369 54.8838C123.619 54.184 123.819 53.5092 123.968 52.8594C124.168 52.1096 124.318 51.3348 124.418 50.5351C124.468 49.8353 124.493 48.7856 124.493 47.386C124.543 45.9864 124.518 44.4119 124.418 42.6624C124.368 40.8629 124.293 39.0134 124.193 37.114C124.093 35.1646 123.968 33.3401 123.819 31.6406C123.669 29.9411 123.494 28.4665 123.294 27.2169C123.144 25.9173 122.969 25.0176 122.769 24.5177C122.519 23.9179 122.219 23.3181 121.869 22.7182C121.569 22.1684 121.194 21.5936 120.744 20.9937C120.295 20.3439 119.795 19.6691 119.245 18.9693Z" fill="#FFBC00"/>
<path d="M84.3202 24.5179C84.5702 24.218 84.7201 23.6682 84.7701 22.8684C84.8701 22.0187 85.07 21.0689 85.3699 20.0193C85.7198 18.9696 86.2947 17.8699 87.0944 16.7202C87.8942 15.5706 89.1938 14.4959 90.9933 13.4962C92.7428 12.4965 94.4423 11.8966 96.0918 11.6967C97.7413 11.4968 99.3158 11.5717 100.815 11.9216C102.315 12.2715 103.715 12.8214 105.014 13.5712C106.364 14.3209 107.588 15.1457 108.688 16.0454C109.438 16.6452 110.038 17.52 110.488 18.6697C110.937 19.7693 111.287 21.019 111.537 22.4186C111.787 23.8181 111.962 25.2927 112.062 26.8423C112.212 28.3418 112.312 29.8164 112.362 31.266C112.412 32.6655 112.437 33.9652 112.437 35.1648C112.487 36.3145 112.587 37.2642 112.737 38.014C112.937 39.1136 113.287 40.0634 113.787 40.8631C114.286 41.6129 114.836 42.2627 115.436 42.8126C116.036 43.3124 116.636 43.7123 117.236 44.0122C117.835 44.3121 118.36 44.537 118.81 44.687C119.11 44.837 119.385 44.9369 119.635 44.9869C120.135 45.1869 120.485 45.1869 120.685 44.9869C120.385 45.6867 120.11 46.2865 119.86 46.7864C119.61 47.2862 119.41 47.7111 119.26 48.061C119.06 48.4609 118.885 48.7858 118.735 49.0357C118.585 49.3356 118.41 49.6106 118.21 49.8605C118.06 50.1104 117.86 50.3853 117.61 50.6852C117.361 50.9851 117.111 51.3101 116.861 51.66C116.211 51.41 115.586 51.1101 114.986 50.7602C114.436 50.4103 113.937 50.0854 113.487 49.7855C112.937 49.4356 112.437 49.0857 111.987 48.7358C111.537 48.3859 111.112 47.986 110.712 47.5362C110.363 47.1363 109.988 46.7114 109.588 46.2615C109.238 45.8117 108.938 45.3118 108.688 44.762C108.388 45.4118 107.663 46.3365 106.514 47.5362C105.414 48.7358 103.964 49.8355 102.165 50.8352C100.366 51.7849 98.2661 52.4597 95.8668 52.8596C93.5175 53.2595 90.9183 52.9846 88.0691 52.0348C86.8195 51.635 85.6449 51.0601 84.5452 50.3103C83.4455 49.5106 82.4958 48.5609 81.696 47.4612C80.9462 46.3615 80.3964 45.1119 80.0465 43.7123C79.7466 42.2627 79.7716 40.6632 80.1215 38.9137C80.4714 37.1642 81.0962 35.6896 81.9959 34.49C82.8957 33.2904 83.9703 32.3156 85.22 31.5659C86.4696 30.8161 87.8692 30.2413 89.4187 29.8414C90.9683 29.4415 92.5678 29.1666 94.2173 29.0166C95.5169 28.9666 96.8166 29.0416 98.1162 29.2415C99.2159 29.4415 100.366 29.8164 101.565 30.3662C102.765 30.8661 103.79 31.6408 104.639 32.6905C104.589 30.0413 104.489 27.9419 104.339 26.3924C104.239 24.7929 104.139 23.5682 104.039 22.7185C103.84 21.7188 103.665 21.019 103.515 20.6191C103.265 20.2692 102.99 19.8693 102.69 19.4194C102.44 18.9696 102.115 18.5697 101.715 18.2198C101.315 17.8199 100.815 17.495 100.216 17.2451C99.6157 16.9951 98.9159 16.8952 98.1162 16.9452C97.2664 16.9951 96.5916 17.2201 96.0918 17.62C95.5919 18.0198 95.192 18.4947 94.8921 19.0445C94.6422 19.5444 94.4922 20.0942 94.4423 20.6941C94.3923 21.2939 94.4173 21.8187 94.5172 22.2686C94.6172 22.5685 94.7672 22.8934 94.9671 23.2433C95.1671 23.5432 95.442 23.8681 95.7919 24.218C96.1418 24.5679 96.6166 24.8678 97.2164 25.1178C96.0668 25.2677 95.0421 25.3927 94.1424 25.4926C93.2426 25.5426 92.4678 25.6176 91.818 25.7176C91.0683 25.8176 90.4184 25.8925 89.8686 25.9425C89.3188 25.9925 88.669 26.0925 87.9192 26.2424C87.2694 26.3424 86.4696 26.4674 85.5199 26.6173C84.5702 26.7673 83.4705 26.9672 82.2209 27.2171C82.5208 26.8672 82.7957 26.5423 83.0456 26.2424C83.2955 25.8925 83.5205 25.5926 83.7204 25.3427C83.9204 25.0428 84.1203 24.7679 84.3202 24.5179ZM95.5669 33.4403C94.6672 33.4903 93.7675 33.7152 92.8677 34.1151C91.968 34.465 91.1682 34.9899 90.4684 35.6896C89.7686 36.3395 89.1688 37.1142 88.669 38.014C88.2191 38.8637 87.9942 39.8134 87.9942 40.8631C87.9942 41.9128 88.2441 42.8375 88.7439 43.6373C89.2938 44.3871 89.9936 45.0119 90.8433 45.5118C91.7431 46.0116 92.6928 46.3115 93.6925 46.4115C94.7422 46.5115 95.7669 46.4115 96.7666 46.1116C97.7163 45.7617 98.616 45.2118 99.4658 44.4621C100.316 43.6623 101.04 42.8126 101.64 41.9128C102.24 40.9631 102.665 40.0384 102.915 39.1386C103.165 38.1889 103.19 37.4141 102.99 36.8143C102.59 35.5147 101.69 34.615 100.291 34.1151C98.891 33.5653 97.3164 33.3403 95.5669 33.4403Z" fill="#FFBC00"/>
<path d="M51.5698 7.64771C53.0694 7.79766 54.319 7.92262 55.3187 8.02259C56.3684 8.12257 57.2181 8.19754 57.8679 8.24753C58.6177 8.29751 59.2175 8.32251 59.6674 8.32251C60.1173 8.37249 60.7171 8.37249 61.4669 8.32251C62.1167 8.27252 62.9664 8.22254 64.0161 8.17255C65.0658 8.07258 66.3904 7.92262 67.99 7.72268C67.6401 8.22254 67.3651 8.6724 67.1652 9.07229C66.9653 9.42218 66.7903 9.74709 66.6404 10.047L66.1905 10.9467C66.0905 11.2466 65.9906 11.5466 65.8906 11.8465C65.7906 12.0964 65.6906 12.3963 65.5907 12.7462C65.5407 13.0961 65.4907 13.471 65.4407 13.8709H76.9873L75.9376 19.9441L65.3657 19.3443C65.1158 21.8935 64.9409 23.8679 64.8409 25.2675C64.7409 26.6671 64.6409 27.6918 64.541 28.3416L64.391 29.6912C64.2411 31.5907 64.0911 33.6651 63.9412 35.9144C63.7912 38.1137 63.7412 40.1631 63.7912 42.0626C63.8412 43.962 64.0161 45.5616 64.316 46.8612C64.616 48.1108 65.1408 48.7356 65.8906 48.7356C66.6404 48.7356 67.3402 48.5357 67.99 48.1358C68.6398 47.7359 69.1896 47.2611 69.6395 46.7112C70.1393 46.1614 70.5142 45.6115 70.7641 45.0617C71.0141 44.4619 71.139 44.012 71.139 43.7121C71.139 43.4122 71.0641 43.0623 70.9141 42.6624C70.6642 41.9126 70.2143 40.9629 69.5645 39.8132C71.0141 40.1631 72.2887 40.513 73.3884 40.8629C73.9382 41.0629 74.4381 41.2628 74.8879 41.4628C75.3878 41.6627 75.9626 41.8876 76.6124 42.1376C77.1623 42.3875 77.8621 42.6874 78.7118 43.0373C79.5616 43.3872 80.5613 43.8121 81.7109 44.3119C80.6113 44.5119 79.8115 44.8368 79.3116 45.2866C79.0117 45.4866 78.7868 45.7115 78.6368 45.9614C78.2869 46.5113 77.8871 47.2611 77.4372 48.2108C76.9873 49.1105 76.3125 50.0102 75.4128 50.91C74.513 51.8097 73.2884 52.6095 71.7389 53.3093C70.2393 54.0091 68.2149 54.409 65.6656 54.5089C63.0164 54.6089 60.992 54.159 59.5924 53.1593C58.2428 52.1596 57.2431 51.01 56.5933 49.7103C55.9935 48.3607 55.6436 47.0361 55.5436 45.7365C55.4437 44.4369 55.3687 43.5621 55.3187 43.1123C55.2687 42.6624 55.2687 41.5377 55.3187 39.7383C55.3687 37.9388 55.4437 35.9644 55.5436 33.815C55.6436 31.6157 55.7436 29.5163 55.8435 27.5169C55.9435 25.4675 55.9935 23.9679 55.9935 23.0182C55.9935 22.5183 56.0185 21.9935 56.0685 21.4436C56.0685 20.9938 56.0685 20.5189 56.0685 20.0191C56.1185 19.4692 56.1434 18.9444 56.1434 18.4445L45.2716 18.3696L44.8218 14.0958L55.7686 14.3957C55.6686 13.8459 55.5436 13.346 55.3937 12.8962C55.2937 12.3963 55.1937 11.9964 55.0938 11.6965C54.9438 11.3466 54.7938 11.0467 54.6439 10.7968C54.4439 10.5469 54.219 10.2719 53.9691 9.97202C53.7192 9.7221 53.3943 9.39719 52.9944 8.99731C52.5945 8.59743 52.1196 8.14756 51.5698 7.64771Z" fill="#FFBC00"/>
<path d="M51.6598 0C50.96 1.59953 50.3352 2.99912 49.7854 4.19877C49.2355 5.39841 48.7607 6.42311 48.3608 7.27286C47.9109 8.22258 47.536 9.07233 47.2361 9.82211C46.9862 10.3719 46.6613 11.1217 46.2614 12.0715C45.8615 12.9212 45.3617 14.0459 44.7618 15.4455C44.212 16.7951 43.4872 18.5445 42.5875 20.6939C42.1376 18.8445 41.5878 17.2199 40.938 15.8203C40.2882 14.4208 39.5884 13.1961 38.8386 12.1464C38.0888 11.0967 37.289 10.247 36.4393 9.59718C35.6395 8.89738 34.8398 8.32255 34.04 7.87268C32.1905 6.87298 30.2411 6.32314 28.1917 6.22317C25.4925 6.37313 23.3681 6.82299 21.8186 7.57277C20.319 8.27257 19.2193 9.09732 18.5196 10.047C17.8198 10.9468 17.4449 11.8965 17.3949 12.8962C17.3449 13.8459 17.4699 14.6457 17.7698 15.2955C18.0197 15.8953 18.8944 16.5951 20.394 17.3949C21.9435 18.1946 23.793 19.1194 25.9424 20.1691C28.1417 21.1688 30.491 22.3184 32.9903 23.6181C35.4896 24.8677 37.7889 26.2673 39.8883 27.8168C42.0376 29.3164 43.8371 30.9659 45.2867 32.7654C46.7862 34.5149 47.611 36.3893 47.761 38.3887C47.9109 40.938 47.8859 43.2373 47.686 45.2867C47.486 47.3361 46.7862 49.0856 45.5866 50.5351C44.3869 51.9847 42.5125 53.1344 39.9632 53.9841C37.464 54.8339 33.99 55.3587 29.5413 55.5587C24.9427 55.7586 21.1688 55.5087 18.2196 54.8089C15.2705 54.1091 12.8712 53.1594 11.0218 51.9597C9.22229 50.7601 7.87268 49.4355 6.97295 47.9859C6.1232 46.5363 5.49838 45.1617 5.0985 43.8621C4.69862 42.5125 4.4237 41.3628 4.27374 40.4131C4.12379 39.4134 3.87386 38.8136 3.52396 38.6136C3.12408 38.3637 2.7242 38.1388 2.32432 37.9388C1.97442 37.7389 1.59953 37.564 1.19965 37.414C0.799765 37.2141 0.399882 37.0391 0 36.8892L21.8186 33.3652C20.569 34.3649 19.5942 35.2896 18.8944 36.1394C18.2446 36.9891 17.7448 37.7389 17.3949 38.3887C16.995 39.1385 16.7201 39.8383 16.5701 40.4881C16.4702 41.1879 16.6951 42.0626 17.2449 43.1123C17.7948 44.162 18.5445 45.1867 19.4943 46.1864C20.494 47.1361 21.6436 47.9359 22.9433 48.5857C24.2429 49.2355 25.5925 49.5104 26.9921 49.4105C28.7415 49.2605 30.1661 48.8356 31.2658 48.1358C32.3655 47.3861 33.1902 46.4613 33.7401 45.3617C34.3399 44.262 34.6898 43.0623 34.7898 41.7627C34.8897 40.4631 34.7648 39.1885 34.4149 37.9388C34.115 36.6392 33.6151 35.4396 32.9153 34.3399C32.2155 33.1902 31.3908 32.2405 30.441 31.4907C29.5913 30.8909 28.2667 30.3161 26.4672 29.7662C24.7177 29.2164 22.7433 28.6166 20.544 27.9668C18.3946 27.317 16.1702 26.5672 13.8709 25.7174C11.6216 24.8677 9.57218 23.818 7.72273 22.5684C5.92326 21.3187 4.47368 19.8442 3.37401 18.1447C2.32432 16.4452 1.92443 14.3958 2.17436 11.9965C2.3743 9.94707 3.02411 8.24757 4.12379 6.89797C5.27345 5.49838 6.69803 4.39871 8.39753 3.59894C10.147 2.74919 12.0715 2.12438 14.1708 1.72449C16.3202 1.32461 18.4946 1.09968 20.6939 1.04969C22.9433 0.949721 25.1426 0.974713 27.292 1.12467C29.4913 1.27463 31.4657 1.44957 33.2152 1.64951C34.9647 1.84946 36.4393 2.0494 37.6389 2.24934C38.8886 2.39929 39.6633 2.49926 39.9632 2.54925C41.2629 2.64922 42.5625 2.62423 43.8621 2.47427C45.0118 2.3743 46.2614 2.14937 47.611 1.79947C49.0106 1.39959 50.3602 0.799765 51.6598 0Z" fill="#FFBC00"/>
<defs>
<clipPath id="clip0_20_229">
<rect width="56.3834" height="48.5857" fill="white" transform="matrix(0 -1 1 0 206.414 56.6833)"/>
</clipPath>
</defs>
</svg>
